<svg xmlns="http://www.w3.org/2000/svg" width="300.03" height="300.03" viewBox="0 0 822 822">
  <defs>
    <style>
      .cls-1 {
        fill: #fff;
      }

      .cls-1, .cls-2 {
        fill-rule: evenodd;
      }

      .cls-2 {
        fill: #341f97;
        stroke: #000;
        stroke-width: 1px;
      }
    </style>
  </defs>
  <path id="P" class="cls-1" d="M93.558,12.2H728.442V808.8H93.558V12.2h0Z"/>
  <path id="_" data-name="ℙ" class="cls-2" d="M371.686,455.476q29.739,1.778,75.92,1.775,73.694,0,128.531-21.741t83.024-63.226q28.188-41.481,28.192-100.939,0-40.37-14.651-71.212a128.77,128.77,0,0,0-43.066-50.8q-28.417-19.965-72.368-30.392T442.722,108.511H146.59v21.741q20.416,5.77,28.859,10.426A37.857,37.857,0,0,1,188.99,153.1q5.1,7.767,7.326,21.74t2.22,44.591V603.224q0,32.841-2.886,48.806t-12.21,24.625q-9.322,8.652-36.85,15.751v21.741H430.735V692.406q-29.75-6.655-40.624-16.195T375.46,649.368q-3.777-17.3-3.774-46.144V455.476Zm116.766-38.157q35.963-26.175,51.723-59.011t15.761-77.646q0-45.256-17.537-79.642t-56.163-57.9l2.22-4.437q75.472,10.649,113.436,43.925t37.96,88.294q0,62.56-36.406,101.383T491.56,422.643ZM247.817,147.556H322.4V675.1H247.817V147.556Zm123.869,7.1q12.872-.885,31.522-0.888,54.61,0,78.806,30.615t24.2,96.28q0,47.919-11.987,76.315T457.152,398.24q-25.089,12.874-67.263,12.867h-18.2V154.655Z"/>
</svg>
